<svg id="Layer_1" data-name="Layer 1" xmlns="http://www.w3.org/2000/svg" width="350" height="200" viewBox="0 0 350 200"><defs><style>.cls-1{fill:#baebeb;}.cls-1,.cls-2{isolation:isolate;}.cls-2{fill:#399;opacity:0.18;}.cls-3{fill:#f7f7f7;}.cls-20,.cls-4{fill:#16a8a8;}.cls-12,.cls-13,.cls-5{fill:#231f20;}.cls-16,.cls-5{opacity:0.1;}.cls-6,.cls-7{fill:#277575;}.cls-7{opacity:0.7;}.cls-8{fill:#fff;}.cls-9{fill:#293345;}.cls-10{fill:#4e6fab;}.cls-11{fill:#f4a28c;}.cls-12{opacity:0.15;}.cls-14{fill:#24285b;}.cls-15{fill:#d9907c;}.cls-17,.cls-26{fill:#1f8f8f;}.cls-18,.cls-19{fill:none;}.cls-18{stroke:#67b0b0;stroke-width:0.28px;}.cls-18,.cls-19,.cls-26{stroke-miterlimit:10;}.cls-19{stroke:#277575;stroke-width:0.84px;}.cls-20,.cls-21,.cls-24{opacity:0.2;}.cls-22{fill:#afd5d6;}.cls-23{fill:#d7edef;}.cls-25{fill:#a5c9c9;}.cls-26{stroke:#1f8f8f;stroke-width:0.51px;}</style></defs><rect class="cls-1" width="350" height="200"/><path class="cls-2" d="M265.93,50.27c-35.36-22.76-66.16-34.34-108.29-28.9A175.08,175.08,0,0,0,67.41,61.25c-155.86,132,278.18,154.21,230,26.49C291.7,72.57,280.5,59.64,265.93,50.27Z"/><rect class="cls-3" x="133.95" y="19.4" width="29.47" height="16.78"/><path class="cls-4" d="M93.16,31.29a.32.32,0,0,1,.32.32V58.28a.32.32,0,0,1-.32.32.32.32,0,0,1-.33-.32V31.61A.32.32,0,0,1,93.16,31.29Z"/><path class="cls-4" d="M77.08,90H145a.32.32,0,1,0,0-.64H77.08a.32.32,0,0,0,0,.64Z"/><path class="cls-4" d="M188.61,133.85H128.37a.37.37,0,0,0,0,.73h60.24a.37.37,0,0,0,0-.73Z"/><path class="cls-4" d="M219.56,45.86V78.11a.32.32,0,0,1-.32.32.32.32,0,0,1-.32-.32V45.86Z"/><path class="cls-4" d="M149,59.38a.32.32,0,0,1-.33.32H118.63a.33.33,0,0,1,0-.65h29.74V36.18H149Z"/><rect class="cls-5" x="131.3" y="71.51" width="116.69" height="29.87" transform="translate(379.3 172.88) rotate(180)"/><circle class="cls-6" cx="148.98" cy="59.13" r="2.31"/><path class="cls-4" d="M189,97.54v54.32h-.74V97.54a.37.37,0,1,1,.74,0Z"/><rect class="cls-4" x="134.97" y="75.13" width="116.7" height="29.87"/><rect class="cls-7" x="141.88" y="82.36" width="101.93" height="4.95" transform="translate(385.68 169.67) rotate(180)"/><rect class="cls-7" x="141.74" y="93.14" width="101.93" height="4.95" transform="translate(385.41 191.24) rotate(180)"/><circle class="cls-6" cx="188.61" cy="134.22" r="2.31"/><rect class="cls-8" x="192.58" y="15.36" width="52.67" height="30.5"/><circle class="cls-8" cx="175.71" cy="95.62" r="5.5"/><path class="cls-9" d="M305.84,178.42c-.36,2.31-.92,4.59-1.24,6.91a71.39,71.39,0,0,0-.53,7.16c-.1,2.5-.21,5-.34,7.51H280.48c-.12-1.6-.26-3.2-.43-4.79a35.54,35.54,0,0,0-1.88-9l-2,13.76H251.72c-.06-1.66-.09-3.33-.1-5-.05-6.39,1.11-12.17,1.46-18.39,0-.26,0-.53,0-.79.26-5.74.46-11.91,1.63-17.66a36.53,36.53,0,0,1,2.57-8.11,23.54,23.54,0,0,1,5-7.19c4.45-4.31,10.72-5.07,16.57-5.55a36.93,36.93,0,0,1,9.28.09,14.44,14.44,0,0,1,5.55,2.09,16.33,16.33,0,0,1,4.75,5,32.63,32.63,0,0,1,3,6.16c.19.5.38,1,.55,1.52.28.81.55,1.62.8,2.43C305.24,162.34,307.11,170.14,305.84,178.42Z"/><path class="cls-10" d="M295.63,112c3.53,11.5-1.72,59.57,14.71,28.11C320.77,120.21,292.47,67.92,295.63,112Z"/><path class="cls-5" d="M303.36,150.06s-1.92-19.74,2.43-36.9C305.79,113.16,311.58,137.07,303.36,150.06Z"/><polygon class="cls-11" points="272.86 94.44 289.44 94.12 286.64 81.09 273.82 81.3 273.68 83.23 273.43 86.61 272.86 94.44"/><path class="cls-12" d="M273.43,86.61a5.23,5.23,0,0,0,1.34-.65L279.6,83a58.44,58.44,0,0,1-5.92.19Z"/><path class="cls-11" d="M267.23,70.31a.88.88,0,0,1,.79,0,2.11,2.11,0,0,1,.65.54A16.31,16.31,0,0,1,272,60.57a15.63,15.63,0,0,1,1.16-1.42c5.22-5.68,15.28-4.75,19.59,1.61a14.31,14.31,0,0,1,.88,13.78,17.47,17.47,0,0,1-10.72,9,12.9,12.9,0,0,1-7.26.26c-4-.86-6.81-3.59-7.14-7.82-.08-1-.07-2.41-.68-3.2-.18-.23-.41-.4-.58-.62a1.76,1.76,0,0,1-.38-1,1,1,0,0,1,.35-.92Z"/><ellipse class="cls-13" cx="271.38" cy="68.79" rx="0.57" ry="1.02"/><path class="cls-14" d="M270.75,64.86a.56.56,0,0,1,.06-.35.74.74,0,0,1,.79-.27A3.17,3.17,0,0,1,273,65a3.53,3.53,0,0,1,1,1.09.47.47,0,0,1,.06.38.39.39,0,0,1-.33.23,1.42,1.42,0,0,1-.87-.2C272.37,66.27,270.86,65.59,270.75,64.86Z"/><path class="cls-13" d="M271.43,78.68c.69-.36.73-1.31.57-2.07a2.71,2.71,0,0,0-.09-.41,2.46,2.46,0,0,0-.72-1.24c-.93-.78-1.46-.24-1.67.62,0,.13,0,.26-.07.4C269.32,77,270,79.46,271.43,78.68Z"/><path class="cls-8" d="M269.52,75.58l.23.15a4,4,0,0,0,2.16.47,2.46,2.46,0,0,0-.72-1.24C270.26,74.18,269.73,74.72,269.52,75.58Z"/><path class="cls-10" d="M256.38,132.53c.86,4.1-.59,8.17-.63,12.27a9.4,9.4,0,0,0,.51,3.57c1.8,4.61,8.58,4.28,12.58,4.67a194.5,194.5,0,0,0,27.52.67c2.49-.11,5.56-.53,6.88-3a5.78,5.78,0,0,0,.59-1.86c1.06-7.22,1.08-14.52,1.52-21.79.43-7.06.89-14.17-.45-21.17a26,26,0,0,0-2.92-8.3,14.57,14.57,0,0,0-1.12-1.73,6.19,6.19,0,0,0-1.76-1.33c-1.17-.68-2.36-1.31-3.58-1.89a25.93,25.93,0,0,0-4-1.54,11.1,11.1,0,0,0-2.69-.49,12.33,12.33,0,0,0-3.28.61,26.6,26.6,0,0,1-3.55.61,19.72,19.72,0,0,1-7.05-.59q-.51-.13-1-.3C255.15,84.8,253.15,117,256.38,132.53Z"/><path class="cls-15" d="M230.26,102.24c2.77,1,.21-5.7-.37-6.73a18.46,18.46,0,0,0-3-3.67l-3.23-3.32A12.76,12.76,0,0,0,221.94,87a1.63,1.63,0,0,0-.9-.37,1.15,1.15,0,0,0-1,.84,2.61,2.61,0,0,0,0,1.36,17.28,17.28,0,0,0,1.89,4.81C223.85,97.21,226.39,100.88,230.26,102.24Z"/><circle class="cls-8" cx="216.26" cy="84.83" r="5.5"/><path class="cls-16" d="M235.52,105h-19c-.89-.45-1.74-1-2.68-1.43-1.45-.61-3-1.11-4.42-1.74-.79-.33-2.88-1.37-2-2.48.5-.61,1.8-.43,2.48-.36,1.77.17,3.45.73,5.2,1.05a59.18,59.18,0,0,1-7-3.16,6,6,0,0,1-2.46-2,1.54,1.54,0,0,1-.14-1.57c.43-.69,1.44-.62,2.24-.43a35.88,35.88,0,0,1,7.38,2.64,43.13,43.13,0,0,1-7.71-5.69c-.36-.37-.75-.9-.52-1.36a1.19,1.19,0,0,1,1.17-.45,12,12,0,0,1,5.07,1.8,14.9,14.9,0,0,0,2.72,1.4A12.49,12.49,0,0,0,214.35,90c-1-.77-2-1.55-3-2.39C210.68,87,209.2,86,209,85c-.31-1.24.83-1.32,1.69-1.15,2.17.45,4.18,1.79,6.09,2.86a63.17,63.17,0,0,1,6.52,3.58,29.47,29.47,0,0,1,5,3.91,28.54,28.54,0,0,1,3.78,5.41,6.28,6.28,0,0,1,.67,1.92Z"/><path class="cls-11" d="M241.35,146.13c-3.49-2.83-5.72-8.39-7.68-12.21q-6.79-13.2-12.33-27c-.85-2.11.21-5.11,1.76-6.77a5.59,5.59,0,0,1,6.23-1.42,9.28,9.28,0,0,1,3,2.71c4.67,5.71,9.18,11.57,13.34,17.67,4.3,6.31,8.35,13.36,8.17,21-.07,2.76-.7,5.26-3.32,6.62C246.66,148.74,243.72,148.07,241.35,146.13Z"/><path class="cls-11" d="M227.92,108.94a10.64,10.64,0,0,0,3.6-1.94c2-1.65,2.15-4.22,1-6.42a29.56,29.56,0,0,0-3.78-5.42,30.06,30.06,0,0,0-5-3.91,63.81,63.81,0,0,0-6.51-3.57c-1.91-1.07-3.92-2.41-6.09-2.86-.86-.18-2-.09-1.69,1.15.22.92,1.7,2,2.38,2.58.95.85,2,1.62,3,2.4a12.59,12.59,0,0,1,1.57,1.24,15.56,15.56,0,0,1-2.72-1.4A12.15,12.15,0,0,0,208.51,89a1.19,1.19,0,0,0-1.17.46c-.23.46.15,1,.52,1.36a43.62,43.62,0,0,0,7.71,5.69,36,36,0,0,0-7.39-2.64c-.79-.19-1.81-.27-2.24.43a1.54,1.54,0,0,0,.15,1.57,6,6,0,0,0,2.46,2,59.92,59.92,0,0,0,7,3.16c-1.75-.31-3.43-.88-5.21-1-.67-.07-2-.26-2.48.36-.9,1.11,1.19,2.14,2,2.48,1.46.63,3,1.14,4.43,1.74,1.25.53,2.33,1.39,3.6,1.82,2.58.87,4,3,6.89,3.06A9.41,9.41,0,0,0,227.92,108.94Z"/><path class="cls-5" d="M271.7,113.16c1.83,22.66-14.08,30.19-15.95,31.64Z"/><path class="cls-10" d="M233.82,141.82a16.26,16.26,0,0,0,6.36,6.46,11.13,11.13,0,0,0,7.16,1.2,15.4,15.4,0,0,0,6.78-3.32,33,33,0,0,0,6.15-6.71,62.57,62.57,0,0,0,5.26-9,86.1,86.1,0,0,0,4.11-10.12,78.14,78.14,0,0,0,3.28-13.56,43.78,43.78,0,0,0,.46-5.84,18.78,18.78,0,0,0-.88-6.54A5.22,5.22,0,0,0,269.43,91c-1.85-.6-3.87.19-5.49,1.07a25.54,25.54,0,0,0-6.78,5.3,27.58,27.58,0,0,0-4.59,7.88c-.71,1.62-1.54,3.17-2.28,4.77-1.77,3.83-3.12,4.4-4.19,5.71a.89.89,0,0,1-1.35,0c-.53-.6-1-1.23-1.49-1.88s-.89-1.33-1.35-2a15.26,15.26,0,0,0-1.2-1.46c-.6-.69-1.36-1.94-2.43-1.84a4.13,4.13,0,0,0-.92.23,35.53,35.53,0,0,0-3.83,1.85c-.76.35-1.52.68-2.29,1l-1,.42c-.14.06-.28.13-.42.18l-.62.28a14.76,14.76,0,0,0-3.29,2,9.64,9.64,0,0,0-1.07,1c-.41.48-.21,2.34-.2,3a18.62,18.62,0,0,0,.34,3,28.51,28.51,0,0,0,1.88,5.78c1,2.19,2.13,4.28,3.14,6.44C231.28,136.45,232.31,139.26,233.82,141.82Z"/><path class="cls-14" d="M278.25,68.3l.57-2.4s.35-1.19-1.67-1.68-9.07-3.32-7.82-5.56c0,0,1.26-6.45,11.36-6.86s14.78,4.39,17.12,7.94a15,15,0,0,1,2.06,5.94c.22,1.38.22,2.78.38,4.16.08.61.15,1.22.24,1.83a50.75,50.75,0,0,0,1,5,23.85,23.85,0,0,0,1.87,5.17,8.55,8.55,0,0,0,2,2.66s-.7,9.77-14.92,8.36-14.8-5-14.8-5l4-14.34Z"/><circle class="cls-11" cx="280.35" cy="71.97" r="4.43"/><rect class="cls-3" x="168.69" y="151.86" width="39.84" height="29.59"/><path id="Icon_material-cloud" data-name="Icon material-cloud" class="cls-17" d="M197.56,164.26a9.16,9.16,0,0,0-17.11-2.45,7.33,7.33,0,0,0,.79,14.62h15.89a6.09,6.09,0,0,0,.43-12.17Z"/><line class="cls-18" x1="198.29" y1="18.29" x2="198.29" y2="42.93"/><line class="cls-18" x1="202.04" y1="18.29" x2="202.04" y2="42.93"/><line class="cls-18" x1="205.78" y1="18.29" x2="205.78" y2="42.93"/><line class="cls-18" x1="209.53" y1="18.29" x2="209.53" y2="42.93"/><line class="cls-18" x1="213.28" y1="18.29" x2="213.28" y2="42.93"/><line class="cls-18" x1="217.02" y1="18.29" x2="217.02" y2="42.93"/><line class="cls-18" x1="220.77" y1="18.29" x2="220.77" y2="42.93"/><line class="cls-18" x1="224.52" y1="18.29" x2="224.52" y2="42.93"/><line class="cls-18" x1="228.26" y1="18.29" x2="228.26" y2="42.93"/><line class="cls-18" x1="232.01" y1="18.29" x2="232.01" y2="42.93"/><line class="cls-18" x1="235.76" y1="18.29" x2="235.76" y2="42.93"/><line class="cls-18" x1="239.5" y1="18.29" x2="239.5" y2="42.93"/><path class="cls-19" d="M196,41.57c.62-2.5,1.19-6,3.68-7.35,3.9-2.18,7.07,3,10.85,2.94,3.34-.06,4.62-4.1,5.1-6.76.38-2.12.79-4.53,2.91-5.62a4.84,4.84,0,0,1,3.27-.33c4.61,1,10,8.38,14.65,3.62,1.17-1.19,1.71-2.83,2.5-4.27a9,9,0,0,1,3.24-3.49"/><rect class="cls-6" x="98.93" y="122.28" width="30.26" height="20.83"/><polygon class="cls-4" points="133.61 123.23 132.91 126.37 132.14 129.91 132.12 130.03 129.19 143.11 98.93 143.11 99.06 142.29 99.96 136.77 101.56 126.99 122.12 126.99 122.35 126.14 122.49 125.62 123.11 123.35 123.18 123.09 125.22 123.12 127.29 123.15 129.19 123.18 131.91 123.21 133.61 123.23"/><polygon class="cls-16" points="37.34 46.65 37.34 53.2 37.34 103.92 116.18 103.92 116.18 53.2 116.18 46.65 37.34 46.65"/><rect class="cls-8" x="41.75" y="49.64" width="78.84" height="57.27" transform="translate(162.34 156.54) rotate(180)"/><rect class="cls-6" x="41.75" y="49.64" width="78.84" height="6.55" transform="translate(162.34 105.82) rotate(180)"/><circle class="cls-8" cx="46.11" cy="52.91" r="1.03"/><circle class="cls-8" cx="49.91" cy="52.91" r="1.03"/><circle class="cls-8" cx="53.7" cy="52.91" r="1.03"/><rect class="cls-20" x="46.07" y="59.7" width="33.09" height="20.05"/><rect class="cls-20" x="83.18" y="59.7" width="33.09" height="20.05"/><g class="cls-21"><rect class="cls-4" x="46.07" y="83.57" width="13.94" height="3.23"/></g><rect class="cls-22" x="60.02" y="83.57" width="13.94" height="3.23"/><rect class="cls-22" x="73.96" y="83.57" width="13.94" height="3.23"/><circle class="cls-4" cx="55.22" cy="69.73" r="6.48"/><path class="cls-16" d="M49.57,66.56a6.48,6.48,0,1,1,11.31,6.33Z"/><path class="cls-16" d="M55,63.25a6.48,6.48,0,0,1,5.89,9.65l-5.66-3.17Z"/><circle class="cls-23" cx="55.22" cy="69.73" r="3.12"/><rect class="cls-4" x="64.13" y="64.9" width="12.36" height="0.85"/><rect class="cls-4" x="64.13" y="67.1" width="12.36" height="0.85"/><rect class="cls-4" x="64.13" y="69.3" width="12.36" height="0.85"/><rect class="cls-4" x="64.13" y="71.51" width="12.36" height="0.85"/><rect class="cls-4" x="64.13" y="73.71" width="12.36" height="0.85"/><circle class="cls-4" cx="91.46" cy="69.73" r="6.48"/><path class="cls-16" d="M97.77,71.25a6.49,6.49,0,0,1-12.61-3Z"/><path class="cls-24" d="M85.16,68.21a6.44,6.44,0,0,1,4.54-4.72l1.76,6.24Z"/><circle class="cls-23" cx="91.46" cy="69.73" r="3.12"/><rect class="cls-4" x="100.37" y="64.9" width="12.36" height="0.85"/><rect class="cls-4" x="100.37" y="67.1" width="12.36" height="0.85"/><rect class="cls-4" x="100.37" y="69.3" width="12.36" height="0.85"/><rect class="cls-4" x="100.37" y="71.51" width="12.36" height="0.85"/><rect class="cls-4" x="100.37" y="73.71" width="12.36" height="0.85"/><g class="cls-21"><rect class="cls-4" x="46.07" y="86.79" width="70.2" height="16.83"/></g><rect class="cls-25" x="48.57" y="84.94" width="8.64" height="0.52"/><rect class="cls-23" x="62.67" y="84.94" width="8.64" height="0.52"/><rect class="cls-23" x="76.61" y="84.94" width="8.64" height="0.52"/><rect class="cls-25" x="48.68" y="90.52" width="14.16" height="0.67"/><rect class="cls-25" x="48.68" y="94.87" width="14.16" height="0.67"/><rect class="cls-25" x="48.68" y="99.22" width="14.16" height="0.67"/><rect class="cls-25" x="65.62" y="90.52" width="14.16" height="0.67"/><rect class="cls-25" x="65.62" y="94.87" width="14.16" height="0.67"/><rect class="cls-25" x="65.62" y="99.22" width="14.16" height="0.67"/><rect class="cls-25" x="82.56" y="90.52" width="14.16" height="0.67"/><rect class="cls-25" x="82.56" y="94.87" width="14.16" height="0.67"/><rect class="cls-25" x="82.56" y="99.22" width="14.16" height="0.67"/><rect class="cls-25" x="99.5" y="90.52" width="14.16" height="0.67"/><rect class="cls-25" x="99.5" y="94.87" width="14.16" height="0.67"/><rect class="cls-25" x="99.5" y="99.22" width="14.16" height="0.67"/><path id="Icon_ionic-ios-globe" data-name="Icon ionic-ios-globe" class="cls-17" d="M93.17,19.4h0a6.14,6.14,0,0,0-.32,12.27,1.67,1.67,0,0,0,.32,0h.33a6.14,6.14,0,0,0-.31-12.28Zm-1.76,1.1a5.94,5.94,0,0,0-.78,1.6,8.89,8.89,0,0,1-1.11-.45A5.31,5.31,0,0,1,91.41,20.5ZM89,22.26a8.44,8.44,0,0,0,1.45.62,11.37,11.37,0,0,0-.29,2.25H87.84A5.29,5.29,0,0,1,89,22.26ZM87.84,26h2.28a11.37,11.37,0,0,0,.29,2.25,11,11,0,0,0-1.46.61A5.33,5.33,0,0,1,87.84,26Zm1.68,3.48A8.89,8.89,0,0,1,90.63,29a5.94,5.94,0,0,0,.78,1.6A5.31,5.31,0,0,1,89.52,29.44Zm3.23,1.34a3.58,3.58,0,0,1-1.34-2,7.57,7.57,0,0,1,1.34-.18Zm0-3a8.24,8.24,0,0,0-1.56.21,10,10,0,0,1-.26-2h1.82Zm0-2.66H90.93a10,10,0,0,1,.26-2,8.24,8.24,0,0,0,1.56.21Zm0-2.64a7.57,7.57,0,0,1-1.34-.18,3.53,3.53,0,0,1,1.34-2Zm5.74,2.64H96.2a11.37,11.37,0,0,0-.29-2.25,8.63,8.63,0,0,0,1.47-.62A5.31,5.31,0,0,1,98.49,25.13Zm-1.68-3.48a9.08,9.08,0,0,1-1.12.46,6.16,6.16,0,0,0-.78-1.61A5.16,5.16,0,0,1,96.81,21.65Zm-3.23-1.32a3.6,3.6,0,0,1,1.33,2,8.5,8.5,0,0,1-1.33.18Zm0,3a8.14,8.14,0,0,0,1.55-.21,10.85,10.85,0,0,1,.26,2H93.58Zm0,2.66h1.81a10.75,10.75,0,0,1-.26,2,8.14,8.14,0,0,0-1.55-.21Zm0,4.8V28.59a8.5,8.5,0,0,1,1.33.18A3.6,3.6,0,0,1,93.58,30.76Zm1.33-.16A6.15,6.15,0,0,0,95.69,29a7.87,7.87,0,0,1,1.13.46A5.48,5.48,0,0,1,94.91,30.6Zm2.47-1.77a8.63,8.63,0,0,0-1.47-.62A11.37,11.37,0,0,0,96.2,26h2.29A5.25,5.25,0,0,1,97.38,28.83Z"/><polygon class="cls-26" points="136.91 27.82 137.5 28.28 143.07 32.62 143.09 31.13 138.82 27.82 143.12 24.46 143.13 22.97 137.5 27.36 136.91 27.82"/><polygon class="cls-26" points="160.45 27.82 159.87 28.28 154.29 32.62 154.28 31.13 158.55 27.82 154.25 24.46 154.24 22.97 159.87 27.36 160.45 27.82"/><rect class="cls-26" x="142.38" y="27.2" width="12.61" height="1.18" transform="translate(57.26 148.3) rotate(-63.4)"/></svg>